HIERARCHY
ROOT joint_0
{
	OFFSET 0.000000 0.000000 0.000000
	CHANNELS 6 Xposition Yposition Zposition Zrotation Yrotation Xrotation 
	JOINT joint_1
	{
		OFFSET 4.520508 -1.939880 86.268921
		CHANNELS 3 Zrotation Yrotation Xrotation
		JOINT joint_2
		{
			OFFSET -4.459717 -0.438538 78.934082
			CHANNELS 3 Zrotation Yrotation Xrotation
			JOINT joint_3
			{
				OFFSET -5.197754 -0.781128 78.796997
				CHANNELS 3 Zrotation Yrotation Xrotation
				JOINT joint_4
				{
					OFFSET 2.952026 -3.710571 109.812988
					CHANNELS 3 Zrotation Yrotation Xrotation
					JOINT joint_5
					{
						OFFSET 24.716797 -5.488037 87.903931
						CHANNELS 3 Zrotation Yrotation Xrotation
						End Site
						{
							OFFSET 0.000000 0.000000 0.000000
						}
					}
				}
				JOINT joint_6
				{
					OFFSET -3.154419 -25.484680 60.934937
					CHANNELS 3 Zrotation Yrotation Xrotation
					JOINT joint_7
					{
						OFFSET -28.997192 -144.472229 -32.671997
						CHANNELS 3 Zrotation Yrotation Xrotation
						JOINT joint_8
						{
							OFFSET 19.867676 -18.614380 -249.897949
							CHANNELS 3 Zrotation Yrotation Xrotation
							JOINT joint_9
							{
								OFFSET 5.281982 -13.816650 -264.993042
								CHANNELS 3 Zrotation Yrotation Xrotation
								End Site
								{
									OFFSET 0.000000 0.000000 0.000000
								}
							}
						}
					}
				}
				JOINT joint_10
				{
					OFFSET 6.494995 21.336792 62.257935
					CHANNELS 3 Zrotation Yrotation Xrotation
					JOINT joint_11
					{
						OFFSET 31.106567 145.200745 -27.007935
						CHANNELS 3 Zrotation Yrotation Xrotation
						JOINT joint_12
						{
							OFFSET 29.119141 24.684326 -248.460083
							CHANNELS 3 Zrotation Yrotation Xrotation
							JOINT joint_13
							{
								OFFSET 21.220093 31.248413 -262.703979
								CHANNELS 3 Zrotation Yrotation Xrotation
								End Site
								{
									OFFSET 0.000000 0.000000 0.000000
								}
							}
						}
					}
				}
			}
		}
	}
	JOINT joint_14
	{
		OFFSET -15.458496 -88.861694 -109.593018
		CHANNELS 3 Zrotation Yrotation Xrotation
		JOINT joint_15
		{
			OFFSET -6.193359 6.837952 -506.710999
			CHANNELS 3 Zrotation Yrotation Xrotation
			JOINT joint_16
			{
				OFFSET -35.096680 13.289795 -435.677025
				CHANNELS 3 Zrotation Yrotation Xrotation
				JOINT joint_17
				{
					OFFSET 158.491211 -33.916565 -71.771002
					CHANNELS 3 Zrotation Yrotation Xrotation
					End Site
					{
						OFFSET 0.000000 0.000000 0.000000
					}
				}
			}
		}
	}
	JOINT joint_18
	{
		OFFSET 23.116943 86.574158 -110.082031
		CHANNELS 3 Zrotation Yrotation Xrotation
		JOINT joint_19
		{
			OFFSET -6.125854 -0.283569 -506.757019
			CHANNELS 3 Zrotation Yrotation Xrotation
			JOINT joint_20
			{
				OFFSET -63.240234 11.589966 -432.537994
				CHANNELS 3 Zrotation Yrotation Xrotation
				JOINT joint_21
				{
					OFFSET 156.074219 -41.487305 -73.077999
					CHANNELS 3 Zrotation Yrotation Xrotation
					End Site
					{
						OFFSET 0.000000 0.000000 0.000000
					}
				}
			}
		}
	}
}
MOTION
Frames: 6
Frame Time: 0.016667
-1632.585327 882.140747 1118.099976 5.348567 -0.374374 1.571720 0.825064 3.375676 0.270997 -0.227095 -0.728718 0.114639 -0.451365 0.612044 -0.035298 -0.503762 2.242825 2.104412 0.000000 0.000000 0.000000 0.143869 4.515581 -7.061645 -0.010080 2.472429 4.083274 0.112889 -23.336953 -16.482171 0.000000 0.000000 0.000000 -1.425630 8.143522 7.131790 -0.923441 9.454686 1.755567 -1.046156 -8.836045 3.175794 0.000000 0.000000 0.000000 -4.263326 -33.460729 -9.213501 5.478864 61.264923 5.089683 13.075971 8.102935 6.540469 0.000000 0.000000 0.000000 -3.497855 -13.150075 -9.691636 -0.019141 26.173880 5.522043 1.338296 -2.830916 -0.258180 0.000000 0.000000 0.000000 
-1612.567749 878.253662 1124.583008 6.161151 -0.054097 1.353993 0.437569 3.053490 0.251268 -0.383998 -0.625480 0.056594 -0.529870 0.538619 0.020989 -0.651238 2.399507 2.631664 0.000000 0.000000 0.000000 -0.089975 4.926917 -6.464578 -0.087235 3.028179 3.683050 0.151950 -20.786030 -13.888576 0.000000 0.000000 0.000000 -1.449018 7.634917 7.391230 -0.857765 9.162489 1.255074 -1.317296 -10.562603 2.648892 0.000000 0.000000 0.000000 -4.644940 -34.660971 -8.491039 5.352354 56.155460 3.917271 12.383122 8.224143 6.344140 0.000000 0.000000 0.000000 -3.770946 -11.808241 -9.044000 -0.663480 24.821331 5.277522 0.604717 -1.613973 -0.229782 0.000000 0.000000 0.000000 
-1592.038818 874.497070 1131.218018 7.092653 0.351570 1.105548 0.028048 2.705237 0.315439 -0.557530 -0.528229 -0.011118 -0.629517 0.458107 0.080369 -0.781292 2.472091 3.086237 0.000000 0.000000 0.000000 -0.336890 5.431930 -5.891550 -0.134195 3.645142 3.405310 0.205744 -18.661926 -11.679186 0.000000 0.000000 0.000000 -1.462957 7.198893 7.585538 -0.818013 8.889396 0.864411 -1.621183 -12.449456 1.961466 0.000000 0.000000 0.000000 -4.939545 -35.607415 -7.954030 5.329046 50.619022 3.171511 11.792926 8.921368 6.340691 0.000000 0.000000 0.000000 -4.086549 -10.640391 -8.316297 -1.289753 23.578177 4.965412 -0.105457 -0.130082 -0.123525 0.000000 0.000000 0.000000 
-1570.693970 871.183777 1137.925049 8.084778 0.959611 0.824118 -0.448461 2.116002 0.531084 -0.715905 -0.359613 -0.088520 -0.699844 0.353830 0.127586 -0.875375 2.450088 3.404501 0.000000 0.000000 0.000000 -0.607633 6.097897 -5.481059 -0.113592 4.298268 3.539964 0.245472 -16.996919 -10.307031 0.000000 0.000000 0.000000 -1.433247 6.872143 7.636811 -0.799663 8.635620 0.636147 -1.950460 -14.436134 1.136502 0.000000 0.000000 0.000000 -5.038270 -36.439815 -7.696846 5.589741 44.586940 3.030645 11.545327 10.160978 6.607200 0.000000 0.000000 0.000000 -4.412774 -9.856307 -7.493373 -1.830054 22.644657 4.542667 -0.731049 1.610927 0.085401 0.000000 0.000000 0.000000 
-1548.837891 868.000916 1144.782959 9.185288 1.668769 0.535879 -0.952388 1.476385 0.807868 -0.886988 -0.185589 -0.167014 -0.783840 0.238604 0.176858 -0.953430 2.341729 3.653745 0.000000 0.000000 0.000000 -0.893399 6.877459 -5.128442 -0.066929 5.012656 3.860606 0.276090 -15.704442 -9.336713 0.000000 0.000000 0.000000 -1.388897 6.613461 7.631377 -0.807332 8.403399 0.510615 -2.320754 -16.591127 0.149815 0.000000 0.000000 0.000000 -5.034454 -36.999031 -7.638510 6.034063 37.908347 3.170536 11.301162 12.088534 7.040274 0.000000 0.000000 0.000000 -4.764880 -9.267311 -6.607995 -2.337954 21.825242 4.059112 -1.325760 3.627650 0.381673 0.000000 0.000000 0.000000 
-1526.266479 864.684998 1151.211060 10.272074 2.243770 0.270815 -1.376599 1.045724 1.018294 -1.062538 -0.107627 -0.217732 -0.901545 0.146184 0.227732 -1.022461 2.297190 3.880832 0.000000 0.000000 0.000000 -1.145771 7.636155 -4.780797 0.004714 5.698820 4.224763 0.303700 -14.368479 -8.383956 0.000000 0.000000 0.000000 -1.339830 6.373254 7.645923 -0.849243 8.192137 0.357003 -2.691451 -18.755425 -0.728980 0.000000 0.000000 0.000000 -5.047490 -37.148296 -7.610154 6.487955 31.297448 3.187428 10.865647 14.315651 7.446854 0.000000 0.000000 0.000000 -5.069517 -8.472715 -5.739458 -2.815719 20.917155 3.619439 -1.874960 5.714645 0.716365 0.000000 0.000000 0.000000 
